%TF.GenerationSoftware,KiCad,Pcbnew,9.0.7*%
%TF.CreationDate,2026-02-12T00:57:52-08:00*%
%TF.ProjectId,sensor-pcb,73656e73-6f72-42d7-9063-622e6b696361,rev?*%
%TF.SameCoordinates,PXa5d4648PY5882b10*%
%TF.FileFunction,Copper,L2,Bot*%
%TF.FilePolarity,Positive*%
%FSLAX46Y46*%
G04 Gerber Fmt 4.6, Leading zero omitted, Abs format (unit mm)*
G04 Created by KiCad (PCBNEW 9.0.7) date 2026-02-12 00:57:52*
%MOMM*%
%LPD*%
G01*
G04 APERTURE LIST*
%TA.AperFunction,ComponentPad*%
%ADD10C,3.000000*%
%TD*%
%TA.AperFunction,ComponentPad*%
%ADD11C,1.574800*%
%TD*%
%TA.AperFunction,ViaPad*%
%ADD12C,0.600000*%
%TD*%
%TA.AperFunction,Conductor*%
%ADD13C,0.200000*%
%TD*%
%TA.AperFunction,Conductor*%
%ADD14C,0.250000*%
%TD*%
G04 APERTURE END LIST*
D10*
%TO.P,J3,1,Pin_1*%
%TO.N,/MT1*%
X8000000Y-12400000D03*
%TD*%
%TO.P,J4,1,Pin_1*%
%TO.N,/MT2*%
X9500000Y-9400000D03*
%TD*%
D11*
%TO.P,J1,1,Pin_1*%
%TO.N,/VIN1*%
X-3260000Y-12300000D03*
%TO.P,J1,2,Pin_2*%
%TO.N,/OUTPROT*%
X-5800000Y-12300000D03*
%TO.P,J1,3,Pin_3*%
%TO.N,/VIN2*%
X-8340000Y-12300000D03*
%TD*%
%TO.P,J2,1,Pin_1*%
%TO.N,/MT1*%
X5445000Y-12300000D03*
%TO.P,J2,2,Pin_2*%
%TO.N,/MT2*%
X2905000Y-12300000D03*
%TD*%
D12*
%TO.N,GND*%
X-2600000Y-9100000D03*
%TO.N,+5V*%
X1200000Y-11600000D03*
%TO.N,GND*%
X2200000Y-6200000D03*
X-600000Y-6000000D03*
%TO.N,/VIN2*%
X-600000Y-11600000D03*
%TO.N,/VIN1*%
X1200000Y-6400000D03*
%TO.N,+5V*%
X-1900000Y-10200000D03*
%TO.N,/VIN2*%
X-600000Y-8950000D03*
%TO.N,/VIN1*%
X1200000Y-9100000D03*
%TO.N,GND*%
X-7100149Y-9384476D03*
%TO.N,+5V*%
X-7025000Y-10797339D03*
%TO.N,/VPOS*%
X-2625000Y-6700000D03*
X-5600000Y-8125000D03*
%TD*%
D13*
%TO.N,GND*%
X1700000Y-5700000D02*
X2200000Y-6200000D01*
X-300000Y-5700000D02*
X1700000Y-5700000D01*
X-600000Y-6000000D02*
X-300000Y-5700000D01*
X-600000Y-7100000D02*
X-600000Y-6000000D01*
X-2600000Y-9100000D02*
X-600000Y-7100000D01*
D14*
X-2884476Y-9384476D02*
X-2600000Y-9100000D01*
X-7100149Y-9384476D02*
X-2884476Y-9384476D01*
D13*
%TO.N,/VIN2*%
X-7349890Y-10196339D02*
X-8340000Y-11186449D01*
X-6103661Y-10196339D02*
X-7349890Y-10196339D01*
X-5901000Y-10399000D02*
X-6103661Y-10196339D01*
X-2516100Y-9799000D02*
X-3116100Y-10399000D01*
X-1899000Y-9599000D02*
X-2148943Y-9599000D01*
X-2148943Y-9599000D02*
X-2348943Y-9799000D01*
X-8340000Y-11186449D02*
X-8340000Y-12300000D01*
X-3116100Y-10399000D02*
X-5901000Y-10399000D01*
X-1250000Y-8950000D02*
X-1899000Y-9599000D01*
X-600000Y-8950000D02*
X-1250000Y-8950000D01*
X-2348943Y-9799000D02*
X-2516100Y-9799000D01*
%TO.N,+5V*%
X1500000Y-11300000D02*
X1200000Y-11600000D01*
X1500000Y-10800000D02*
X1500000Y-11300000D01*
X600000Y-9900000D02*
X1500000Y-10800000D01*
X-1490350Y-9900000D02*
X600000Y-9900000D01*
X-1900000Y-10200000D02*
X-1790350Y-10200000D01*
X-7022339Y-10800000D02*
X-7025000Y-10797339D01*
X-2950000Y-10800000D02*
X-7022339Y-10800000D01*
X-1900000Y-10200000D02*
X-2350000Y-10200000D01*
X-2350000Y-10200000D02*
X-2950000Y-10800000D01*
X-1790350Y-10200000D02*
X-1490350Y-9900000D01*
D14*
%TO.N,/VPOS*%
X-4025000Y-8100000D02*
X-5575000Y-8100000D01*
X-2625000Y-6700000D02*
X-4025000Y-8100000D01*
X-5575000Y-8100000D02*
X-5600000Y-8125000D01*
D13*
%TO.N,/VIN2*%
X-988400Y-11211600D02*
X-600000Y-11600000D01*
X-7339231Y-12300000D02*
X-6250831Y-11211600D01*
X-8340000Y-12300000D02*
X-7339231Y-12300000D01*
X-6250831Y-11211600D02*
X-988400Y-11211600D01*
%TO.N,/VIN1*%
X1200000Y-9100000D02*
X1200000Y-6400000D01*
X2000000Y-11649943D02*
X2000000Y-9900000D01*
X1349943Y-12300000D02*
X2000000Y-11649943D01*
X2000000Y-9900000D02*
X1200000Y-9100000D01*
X-3260000Y-12300000D02*
X1349943Y-12300000D01*
%TO.N,+5V*%
X-7025000Y-10775000D02*
X-7025000Y-10797339D01*
%TD*%
M02*
