%TF.GenerationSoftware,KiCad,Pcbnew,9.0.7*%
%TF.CreationDate,2026-02-10T23:15:34-08:00*%
%TF.ProjectId,sensor-pcb,73656e73-6f72-42d7-9063-622e6b696361,rev?*%
%TF.SameCoordinates,PXa5d4648PY5882b10*%
%TF.FileFunction,Copper,L2,Bot*%
%TF.FilePolarity,Positive*%
%FSLAX46Y46*%
G04 Gerber Fmt 4.6, Leading zero omitted, Abs format (unit mm)*
G04 Created by KiCad (PCBNEW 9.0.7) date 2026-02-10 23:15:34*
%MOMM*%
%LPD*%
G01*
G04 APERTURE LIST*
%TA.AperFunction,ComponentPad*%
%ADD10C,3.000000*%
%TD*%
%TA.AperFunction,ComponentPad*%
%ADD11C,1.574800*%
%TD*%
%TA.AperFunction,ViaPad*%
%ADD12C,0.600000*%
%TD*%
%TA.AperFunction,Conductor*%
%ADD13C,0.250000*%
%TD*%
%TA.AperFunction,Conductor*%
%ADD14C,0.500000*%
%TD*%
%TA.AperFunction,Conductor*%
%ADD15C,0.200000*%
%TD*%
G04 APERTURE END LIST*
D10*
%TO.P,J3,1,Pin_1*%
%TO.N,/MT1*%
X8000000Y-12400000D03*
%TD*%
%TO.P,J4,1,Pin_1*%
%TO.N,/MT2*%
X9500000Y-9400000D03*
%TD*%
D11*
%TO.P,J1,1,Pin_1*%
%TO.N,/VIN*%
X-3260000Y-12300000D03*
%TO.P,J1,2,Pin_2*%
%TO.N,/OUTPROT*%
X-5800000Y-12300000D03*
%TO.P,J1,3,Pin_3*%
%TO.N,GND*%
X-8340000Y-12300000D03*
%TD*%
%TO.P,J2,1,Pin_1*%
%TO.N,/MT1*%
X5445000Y-12300000D03*
%TO.P,J2,2,Pin_2*%
%TO.N,/MT2*%
X2905000Y-12300000D03*
%TD*%
D12*
%TO.N,GND*%
X-7100000Y-9800000D03*
X-550000Y-12500000D03*
%TO.N,+5V*%
X-500000Y-10300000D03*
X-7025000Y-10797339D03*
%TO.N,/VIN*%
X-500000Y-7000000D03*
%TO.N,/VPOS*%
X-2600000Y-8100000D03*
X-5600000Y-8125000D03*
%TD*%
D13*
%TO.N,/VIN*%
X-2434000Y-13126000D02*
X-3260000Y-12300000D01*
X574000Y-13126000D02*
X-2434000Y-13126000D01*
X1200000Y-12500000D02*
X574000Y-13126000D01*
X-500000Y-7000000D02*
X1200000Y-8700000D01*
X1200000Y-8700000D02*
X1200000Y-12500000D01*
D14*
%TO.N,GND*%
X400000Y-12200000D02*
X400000Y-9700000D01*
X-6300000Y-7200000D02*
X-8340000Y-9240000D01*
X-8340000Y-9240000D02*
X-8340000Y-12300000D01*
X100000Y-12500000D02*
X400000Y-12200000D01*
X-550000Y-12500000D02*
X100000Y-12500000D01*
X400000Y-9700000D02*
X-2100000Y-7200000D01*
X-2100000Y-7200000D02*
X-6300000Y-7200000D01*
D15*
%TO.N,+5V*%
X-7025000Y-10775000D02*
X-7025000Y-10797339D01*
X-7700000Y-10100000D02*
X-7025000Y-10775000D01*
X-7700000Y-9500000D02*
X-7700000Y-10100000D01*
X-1700000Y-9100000D02*
X-7300000Y-9100000D01*
X-500000Y-10300000D02*
X-1700000Y-9100000D01*
X-7300000Y-9100000D02*
X-7700000Y-9500000D01*
D14*
%TO.N,GND*%
X-550000Y-12500000D02*
X-600000Y-12450000D01*
X-2100000Y-9800000D02*
X-7100000Y-9800000D01*
X-600000Y-11300000D02*
X-2100000Y-9800000D01*
X-600000Y-12450000D02*
X-600000Y-11300000D01*
D13*
%TO.N,/VPOS*%
X-5575000Y-8100000D02*
X-2600000Y-8100000D01*
X-5600000Y-8125000D02*
X-5575000Y-8100000D01*
%TD*%
M02*
