%TF.GenerationSoftware,KiCad,Pcbnew,9.0.7*%
%TF.CreationDate,2026-02-12T00:57:52-08:00*%
%TF.ProjectId,sensor-pcb,73656e73-6f72-42d7-9063-622e6b696361,rev?*%
%TF.SameCoordinates,PXa5d4648PY5882b10*%
%TF.FileFunction,Copper,L1,Top*%
%TF.FilePolarity,Positive*%
%FSLAX46Y46*%
G04 Gerber Fmt 4.6, Leading zero omitted, Abs format (unit mm)*
G04 Created by KiCad (PCBNEW 9.0.7) date 2026-02-12 00:57:52*
%MOMM*%
%LPD*%
G01*
G04 APERTURE LIST*
G04 Aperture macros list*
%AMRoundRect*
0 Rectangle with rounded corners*
0 $1 Rounding radius*
0 $2 $3 $4 $5 $6 $7 $8 $9 X,Y pos of 4 corners*
0 Add a 4 corners polygon primitive as box body*
4,1,4,$2,$3,$4,$5,$6,$7,$8,$9,$2,$3,0*
0 Add four circle primitives for the rounded corners*
1,1,$1+$1,$2,$3*
1,1,$1+$1,$4,$5*
1,1,$1+$1,$6,$7*
1,1,$1+$1,$8,$9*
0 Add four rect primitives between the rounded corners*
20,1,$1+$1,$2,$3,$4,$5,0*
20,1,$1+$1,$4,$5,$6,$7,0*
20,1,$1+$1,$6,$7,$8,$9,0*
20,1,$1+$1,$8,$9,$2,$3,0*%
G04 Aperture macros list end*
%TA.AperFunction,SMDPad,CuDef*%
%ADD10RoundRect,0.250000X0.325000X0.650000X-0.325000X0.650000X-0.325000X-0.650000X0.325000X-0.650000X0*%
%TD*%
%TA.AperFunction,SMDPad,CuDef*%
%ADD11RoundRect,0.100000X-0.562500X-0.100000X0.562500X-0.100000X0.562500X0.100000X-0.562500X0.100000X0*%
%TD*%
%TA.AperFunction,SMDPad,CuDef*%
%ADD12RoundRect,0.250000X0.250000X0.475000X-0.250000X0.475000X-0.250000X-0.475000X0.250000X-0.475000X0*%
%TD*%
%TA.AperFunction,SMDPad,CuDef*%
%ADD13RoundRect,0.135000X0.185000X-0.135000X0.185000X0.135000X-0.185000X0.135000X-0.185000X-0.135000X0*%
%TD*%
%TA.AperFunction,SMDPad,CuDef*%
%ADD14RoundRect,0.135000X-0.135000X-0.185000X0.135000X-0.185000X0.135000X0.185000X-0.135000X0.185000X0*%
%TD*%
%TA.AperFunction,ComponentPad*%
%ADD15C,3.000000*%
%TD*%
%TA.AperFunction,SMDPad,CuDef*%
%ADD16RoundRect,0.270000X0.730000X-0.630000X0.730000X0.630000X-0.730000X0.630000X-0.730000X-0.630000X0*%
%TD*%
%TA.AperFunction,SMDPad,CuDef*%
%ADD17RoundRect,0.140000X-0.170000X0.140000X-0.170000X-0.140000X0.170000X-0.140000X0.170000X0.140000X0*%
%TD*%
%TA.AperFunction,SMDPad,CuDef*%
%ADD18RoundRect,0.135000X-0.185000X0.135000X-0.185000X-0.135000X0.185000X-0.135000X0.185000X0.135000X0*%
%TD*%
%TA.AperFunction,SMDPad,CuDef*%
%ADD19RoundRect,0.135000X0.135000X0.185000X-0.135000X0.185000X-0.135000X-0.185000X0.135000X-0.185000X0*%
%TD*%
%TA.AperFunction,ComponentPad*%
%ADD20C,1.574800*%
%TD*%
%TA.AperFunction,SMDPad,CuDef*%
%ADD21RoundRect,0.150000X0.512500X0.150000X-0.512500X0.150000X-0.512500X-0.150000X0.512500X-0.150000X0*%
%TD*%
%TA.AperFunction,ViaPad*%
%ADD22C,0.600000*%
%TD*%
%TA.AperFunction,Conductor*%
%ADD23C,0.250000*%
%TD*%
%TA.AperFunction,Conductor*%
%ADD24C,0.200000*%
%TD*%
%TA.AperFunction,Conductor*%
%ADD25C,0.500000*%
%TD*%
%TA.AperFunction,Conductor*%
%ADD26C,1.000000*%
%TD*%
%TA.AperFunction,Conductor*%
%ADD27C,2.000000*%
%TD*%
G04 APERTURE END LIST*
D10*
%TO.P,C2,2*%
%TO.N,/MT2*%
X2925000Y-9400000D03*
%TO.P,C2,1*%
%TO.N,/MT1*%
X5875000Y-9400000D03*
%TD*%
D11*
%TO.P,Q8,1,S*%
%TO.N,GND*%
X-587500Y-7050000D03*
%TO.P,Q8,2,G*%
%TO.N,/VIN2*%
X-587500Y-7700000D03*
%TO.P,Q8,3,D*%
X-587500Y-8350000D03*
%TO.P,Q8,4,S*%
%TO.N,GND*%
X1187500Y-8350000D03*
%TO.P,Q8,5,G*%
%TO.N,/VIN1*%
X1187500Y-7700000D03*
%TO.P,Q8,6,D*%
X1187500Y-7050000D03*
%TD*%
%TO.P,Q7,1,S*%
%TO.N,+5V*%
X-587500Y-9650000D03*
%TO.P,Q7,2,G*%
%TO.N,/VIN2*%
X-587500Y-10300000D03*
%TO.P,Q7,3,D*%
X-587500Y-10950000D03*
%TO.P,Q7,4,S*%
%TO.N,+5V*%
X1187500Y-10950000D03*
%TO.P,Q7,5,G*%
%TO.N,/VIN1*%
X1187500Y-10300000D03*
%TO.P,Q7,6,D*%
X1187500Y-9650000D03*
%TD*%
D12*
%TO.P,C3,1*%
%TO.N,+5V*%
X450000Y-12600000D03*
%TO.P,C3,2*%
%TO.N,GND*%
X-1450000Y-12600000D03*
%TD*%
D13*
%TO.P,R3,1*%
%TO.N,GND*%
X-9600000Y-9910000D03*
%TO.P,R3,2*%
%TO.N,/VREF*%
X-9600000Y-8890000D03*
%TD*%
D14*
%TO.P,R5,1*%
%TO.N,/OUT*%
X-4510000Y-10800000D03*
%TO.P,R5,2*%
%TO.N,/OUTPROT*%
X-3490000Y-10800000D03*
%TD*%
D15*
%TO.P,J3,1,Pin_1*%
%TO.N,/MT1*%
X8000000Y-12400000D03*
%TD*%
D16*
%TO.P,RV1,1,1*%
%TO.N,/VIN2*%
X3950000Y7250000D03*
%TO.P,RV1,2,2*%
%TO.N,/VPOS*%
X3950000Y9750000D03*
%TO.P,RV1,3,3*%
%TO.N,/VIN1*%
X3950000Y12250000D03*
%TO.P,RV1,4*%
%TO.N,N/C*%
X-9950000Y9750000D03*
%TD*%
D17*
%TO.P,C1,1*%
%TO.N,/VPOS*%
X-2600000Y-7420000D03*
%TO.P,C1,2*%
%TO.N,GND*%
X-2600000Y-8380000D03*
%TD*%
D18*
%TO.P,R2,1*%
%TO.N,/VREF*%
X-10600000Y-8890000D03*
%TO.P,R2,2*%
%TO.N,+5V*%
X-10600000Y-9910000D03*
%TD*%
D15*
%TO.P,J4,1,Pin_1*%
%TO.N,/MT2*%
X9500000Y-9400000D03*
%TD*%
D19*
%TO.P,R4,1*%
%TO.N,GND*%
X-3490000Y-9800000D03*
%TO.P,R4,2*%
%TO.N,/OUT*%
X-4510000Y-9800000D03*
%TD*%
%TO.P,R1,1*%
%TO.N,/VREF*%
X-3490000Y-8800000D03*
%TO.P,R1,2*%
%TO.N,/OUT*%
X-4510000Y-8800000D03*
%TD*%
D20*
%TO.P,J1,1,Pin_1*%
%TO.N,/VIN1*%
X-3260000Y-12300000D03*
%TO.P,J1,2,Pin_2*%
%TO.N,/OUTPROT*%
X-5800000Y-12300000D03*
%TO.P,J1,3,Pin_3*%
%TO.N,/VIN2*%
X-8340000Y-12300000D03*
%TD*%
%TO.P,J2,1,Pin_1*%
%TO.N,/MT1*%
X5445000Y-12300000D03*
%TO.P,J2,2,Pin_2*%
%TO.N,/MT2*%
X2905000Y-12300000D03*
%TD*%
D21*
%TO.P,U1,1*%
%TO.N,/OUT*%
X-5862500Y-10750000D03*
%TO.P,U1,2,V-*%
%TO.N,GND*%
X-5862500Y-9800000D03*
%TO.P,U1,3,+*%
%TO.N,/VPOS*%
X-5862500Y-8850000D03*
%TO.P,U1,4,-*%
%TO.N,/VREF*%
X-8137500Y-8850000D03*
%TO.P,U1,5,V+*%
%TO.N,+5V*%
X-8137500Y-10750000D03*
%TD*%
D22*
%TO.N,GND*%
X-2600000Y-9100000D03*
%TO.N,+5V*%
X1200000Y-11600000D03*
%TO.N,GND*%
X2200000Y-6200000D03*
X-600000Y-6000000D03*
%TO.N,/VIN2*%
X-600000Y-11600000D03*
%TO.N,/VIN1*%
X1200000Y-6400000D03*
%TO.N,+5V*%
X-1900000Y-10200000D03*
%TO.N,/VIN2*%
X-600000Y-8950000D03*
%TO.N,/VIN1*%
X1200000Y-9100000D03*
%TO.N,GND*%
X-7100149Y-9384476D03*
%TO.N,+5V*%
X-7025000Y-10797339D03*
%TO.N,/VPOS*%
X-2625000Y-6700000D03*
X-5600000Y-8125000D03*
%TD*%
D23*
%TO.N,GND*%
X-2600000Y-9780000D02*
X-2600000Y-9100000D01*
D24*
X-2600000Y-8380000D02*
X-2600000Y-9100000D01*
D23*
%TO.N,/VPOS*%
X-2625000Y-7395000D02*
X-2600000Y-7420000D01*
X-2625000Y-6700000D02*
X-2625000Y-7395000D01*
D24*
%TO.N,+5V*%
X-1740350Y-9650000D02*
X-587500Y-9650000D01*
X-1900000Y-9809650D02*
X-1740350Y-9650000D01*
X-1900000Y-10200000D02*
X-1900000Y-9809650D01*
D23*
%TO.N,/VPOS*%
X-2600000Y-6725000D02*
X-2625000Y-6700000D01*
X2173000Y8972999D02*
X2950001Y9750000D01*
X2950001Y9750000D02*
X3950000Y9750000D01*
X2173000Y4473000D02*
X2173000Y8972999D01*
X-2600000Y-300000D02*
X2173000Y4473000D01*
X-2625000Y-6700000D02*
X-2600000Y-6675000D01*
X-2600000Y-6675000D02*
X-2600000Y-300000D01*
%TO.N,GND*%
X-6684625Y-9800000D02*
X-5862500Y-9800000D01*
X-7100149Y-9384476D02*
X-6684625Y-9800000D01*
X-7610000Y-9910000D02*
X-9600000Y-9910000D01*
X-7100149Y-9400149D02*
X-7610000Y-9910000D01*
X-7100149Y-9384476D02*
X-7100149Y-9400149D01*
D24*
%TO.N,+5V*%
X2200000Y-11200000D02*
X1950000Y-10950000D01*
X1950000Y-10950000D02*
X1187500Y-10950000D01*
X2200000Y-11400000D02*
X2200000Y-11200000D01*
X2000000Y-11600000D02*
X2200000Y-11400000D01*
X1200000Y-11600000D02*
X2000000Y-11600000D01*
X450000Y-11750000D02*
X450000Y-12600000D01*
X600000Y-11600000D02*
X450000Y-11750000D01*
X1200000Y-11600000D02*
X600000Y-11600000D01*
D23*
%TO.N,GND*%
X-1450000Y-11650000D02*
X-1450000Y-12600000D01*
X-2600000Y-10500000D02*
X-1450000Y-11650000D01*
X-2600000Y-9780000D02*
X-2600000Y-10500000D01*
%TO.N,/VIN1*%
X1200000Y2100000D02*
X1200000Y-6400000D01*
X5600000Y6500000D02*
X1200000Y2100000D01*
%TO.N,/VIN2*%
X-1700000Y-7700000D02*
X-587500Y-7700000D01*
X-2000000Y-400000D02*
X-2000000Y-7400000D01*
X-2000000Y-7400000D02*
X-1700000Y-7700000D01*
X3950000Y5550000D02*
X-2000000Y-400000D01*
X3950000Y7250000D02*
X3950000Y5550000D01*
D24*
%TO.N,GND*%
X1950000Y-8350000D02*
X1187500Y-8350000D01*
X2200000Y-8100000D02*
X1950000Y-8350000D01*
X2200000Y-6200000D02*
X2200000Y-8100000D01*
X-587500Y-7050000D02*
X-587500Y-5987500D01*
%TO.N,/VIN1*%
X1187500Y-6412500D02*
X1200000Y-6400000D01*
X1187500Y-7050000D02*
X1187500Y-6412500D01*
%TO.N,/VIN2*%
X-587500Y-8937500D02*
X-600000Y-8950000D01*
X-587500Y-8350000D02*
X-587500Y-8937500D01*
%TO.N,/VIN1*%
X1187500Y-9112500D02*
X1200000Y-9100000D01*
X1187500Y-9650000D02*
X1187500Y-9112500D01*
%TO.N,/VIN2*%
X-587500Y-10950000D02*
X-587500Y-10300000D01*
X-587500Y-8350000D02*
X-587500Y-7700000D01*
%TO.N,/VIN1*%
X1187500Y-7700000D02*
X1187500Y-7050000D01*
X1187500Y-10300000D02*
X1187500Y-9650000D01*
D23*
%TO.N,/OUTPROT*%
X-3800000Y-10800000D02*
X-3490000Y-10800000D01*
X-3914000Y-11314000D02*
X-3914000Y-10914000D01*
X-4900000Y-12300000D02*
X-3914000Y-11314000D01*
X-3914000Y-10914000D02*
X-3800000Y-10800000D01*
X-5800000Y-12300000D02*
X-4900000Y-12300000D01*
D25*
%TO.N,GND*%
X-1650000Y-12300000D02*
X-1450000Y-12500000D01*
D23*
X-3490000Y-9800000D02*
X-2620000Y-9800000D01*
X-2620000Y-9800000D02*
X-2600000Y-9780000D01*
D26*
%TO.N,/MT1*%
X8000000Y-12400000D02*
X5545000Y-12400000D01*
X5545000Y-12400000D02*
X5445000Y-12300000D01*
D23*
%TO.N,/VIN1*%
X5600000Y6500000D02*
X5600000Y11800000D01*
%TO.N,+5V*%
X-8137500Y-10750000D02*
X-7072339Y-10750000D01*
X-10350000Y-10750000D02*
X-10600000Y-10500000D01*
%TO.N,/VIN1*%
X5600000Y11800000D02*
X5150000Y12250000D01*
%TO.N,+5V*%
X-7072339Y-10750000D02*
X-7025000Y-10797339D01*
%TO.N,/VIN1*%
X5150000Y12250000D02*
X3950000Y12250000D01*
%TO.N,+5V*%
X-10600000Y-10500000D02*
X-10600000Y-9910000D01*
X-8137500Y-10750000D02*
X-10350000Y-10750000D01*
%TO.N,/VPOS*%
X-5862500Y-8850000D02*
X-5862500Y-8387500D01*
X-5862500Y-8387500D02*
X-5600000Y-8125000D01*
%TO.N,/VREF*%
X-8137500Y-8850000D02*
X-8137500Y-8037500D01*
X-8137500Y-8037500D02*
X-7600000Y-7500000D01*
X-3490000Y-8010000D02*
X-3490000Y-8800000D01*
X-7600000Y-7500000D02*
X-4000000Y-7500000D01*
X-8137500Y-8850000D02*
X-9560000Y-8850000D01*
X-10600000Y-8890000D02*
X-9600000Y-8890000D01*
X-4000000Y-7500000D02*
X-3490000Y-8010000D01*
X-9560000Y-8850000D02*
X-9600000Y-8890000D01*
%TO.N,/OUT*%
X-4560000Y-10750000D02*
X-4510000Y-10800000D01*
X-5862500Y-10750000D02*
X-4560000Y-10750000D01*
X-4510000Y-9800000D02*
X-4510000Y-10800000D01*
X-4510000Y-8800000D02*
X-4510000Y-9800000D01*
D24*
%TO.N,/VIN2*%
X-587500Y-11587500D02*
X-600000Y-11600000D01*
X-587500Y-10950000D02*
X-587500Y-11587500D01*
D27*
%TO.N,/MT2*%
X9500000Y-9400000D02*
X7100000Y-7000000D01*
D25*
%TO.N,/MT1*%
X5445000Y-11155000D02*
X5445000Y-12300000D01*
X5875000Y-9700000D02*
X5875000Y-10725000D01*
X5875000Y-10725000D02*
X5445000Y-11155000D01*
%TO.N,/MT2*%
X2905000Y-7395000D02*
X3300000Y-7000000D01*
X2905000Y-12300000D02*
X2905000Y-7395000D01*
X3300000Y-7000000D02*
X4400000Y-7000000D01*
D27*
X7100000Y-7000000D02*
X4400000Y-7000000D01*
%TD*%
M02*
